<svg id="visual" viewBox="0 0 1440 100" width="1440" height="100" xmlns="http://www.w3.org/2000/svg" xmlns:xlink="http://www.w3.org/1999/xlink" version="1.1"><path d="M0 33L10.5 32.2C21 31.3 42 29.7 62.8 28.5C83.7 27.3 104.3 26.7 125.2 30C146 33.3 167 40.7 187.8 41.3C208.7 42 229.3 36 250.2 34.7C271 33.3 292 36.7 313 36.2C334 35.7 355 31.3 375.8 29.5C396.7 27.7 417.3 28.3 438.2 27C459 25.7 480 22.3 500.8 21C521.7 19.7 542.3 20.3 563.2 25C584 29.7 605 38.3 626 39.3C647 40.3 668 33.7 688.8 28.8C709.7 24 730.3 21 751.2 24.2C772 27.3 793 36.7 814 37.7C835 38.7 856 31.3 876.8 30.3C897.7 29.3 918.3 34.7 939.2 37C960 39.3 981 38.7 1001.8 38C1022.7 37.3 1043.3 36.7 1064.2 33.2C1085 29.7 1106 23.3 1127 23.7C1148 24 1169 31 1189.8 34.5C1210.7 38 1231.3 38 1252.2 35C1273 32 1294 26 1314.8 22.3C1335.7 18.7 1356.3 17.3 1377.2 18.5C1398 19.7 1419 23.3 1429.5 25.2L1440 27L1440 101L1429.5 101C1419 101 1398 101 1377.2 101C1356.3 101 1335.7 101 1314.8 101C1294 101 1273 101 1252.2 101C1231.3 101 1210.7 101 1189.8 101C1169 101 1148 101 1127 101C1106 101 1085 101 1064.2 101C1043.3 101 1022.7 101 1001.8 101C981 101 960 101 939.2 101C918.3 101 897.7 101 876.8 101C856 101 835 101 814 101C793 101 772 101 751.2 101C730.3 101 709.7 101 688.8 101C668 101 647 101 626 101C605 101 584 101 563.2 101C542.3 101 521.7 101 500.8 101C480 101 459 101 438.2 101C417.3 101 396.7 101 375.8 101C355 101 334 101 313 101C292 101 271 101 250.2 101C229.3 101 208.7 101 187.8 101C167 101 146 101 125.2 101C104.3 101 83.7 101 62.8 101C42 101 21 101 10.5 101L0 101Z" fill="#4c4c4c"></path><path d="M0 48L10.5 45.8C21 43.7 42 39.3 62.8 38C83.7 36.7 104.3 38.3 125.2 41.3C146 44.3 167 48.7 187.8 48.5C208.7 48.3 229.3 43.7 250.2 41.3C271 39 292 39 313 40.5C334 42 355 45 375.8 44.3C396.7 43.7 417.3 39.3 438.2 38.5C459 37.7 480 40.3 500.8 44C521.7 47.7 542.3 52.3 563.2 51.2C584 50 605 43 626 39.8C647 36.7 668 37.3 688.8 38.7C709.7 40 730.3 42 751.2 42.8C772 43.7 793 43.3 814 43.2C835 43 856 43 876.8 41.3C897.7 39.7 918.3 36.3 939.2 37.3C960 38.3 981 43.7 1001.8 43.5C1022.7 43.3 1043.3 37.7 1064.2 34.7C1085 31.7 1106 31.3 1127 34.2C1148 37 1169 43 1189.8 44.8C1210.7 46.7 1231.3 44.3 1252.2 42.8C1273 41.3 1294 40.7 1314.8 43C1335.7 45.3 1356.3 50.7 1377.2 49.5C1398 48.3 1419 40.7 1429.5 36.8L1440 33L1440 101L1429.5 101C1419 101 1398 101 1377.2 101C1356.3 101 1335.7 101 1314.8 101C1294 101 1273 101 1252.2 101C1231.3 101 1210.7 101 1189.8 101C1169 101 1148 101 1127 101C1106 101 1085 101 1064.2 101C1043.3 101 1022.7 101 1001.8 101C981 101 960 101 939.2 101C918.3 101 897.7 101 876.8 101C856 101 835 101 814 101C793 101 772 101 751.2 101C730.3 101 709.7 101 688.8 101C668 101 647 101 626 101C605 101 584 101 563.2 101C542.3 101 521.7 101 500.8 101C480 101 459 101 438.2 101C417.3 101 396.7 101 375.8 101C355 101 334 101 313 101C292 101 271 101 250.2 101C229.3 101 208.7 101 187.8 101C167 101 146 101 125.2 101C104.3 101 83.7 101 62.8 101C42 101 21 101 10.5 101L0 101Z" fill="#3a3a3a"></path><path d="M0 51L10.5 51.3C21 51.7 42 52.3 62.8 52.3C83.7 52.3 104.3 51.7 125.2 51C146 50.3 167 49.7 187.8 49.5C208.7 49.3 229.3 49.7 250.2 52.3C271 55 292 60 313 63.2C334 66.3 355 67.7 375.8 66.2C396.7 64.7 417.3 60.3 438.2 58.7C459 57 480 58 500.8 59.2C521.7 60.3 542.3 61.7 563.2 60.5C584 59.3 605 55.7 626 53C647 50.3 668 48.7 688.8 48.7C709.7 48.7 730.3 50.3 751.2 51C772 51.7 793 51.3 814 52.8C835 54.3 856 57.7 876.8 58.5C897.7 59.3 918.3 57.7 939.2 56.3C960 55 981 54 1001.8 54.7C1022.7 55.3 1043.3 57.7 1064.2 59.8C1085 62 1106 64 1127 63.8C1148 63.7 1169 61.3 1189.8 61C1210.7 60.7 1231.3 62.3 1252.2 60.3C1273 58.3 1294 52.7 1314.8 51.5C1335.7 50.3 1356.3 53.7 1377.2 55.7C1398 57.7 1419 58.3 1429.5 58.7L1440 59L1440 101L1429.5 101C1419 101 1398 101 1377.2 101C1356.3 101 1335.7 101 1314.8 101C1294 101 1273 101 1252.2 101C1231.3 101 1210.7 101 1189.8 101C1169 101 1148 101 1127 101C1106 101 1085 101 1064.2 101C1043.3 101 1022.7 101 1001.8 101C981 101 960 101 939.2 101C918.3 101 897.7 101 876.8 101C856 101 835 101 814 101C793 101 772 101 751.2 101C730.3 101 709.7 101 688.8 101C668 101 647 101 626 101C605 101 584 101 563.2 101C542.3 101 521.7 101 500.8 101C480 101 459 101 438.2 101C417.3 101 396.7 101 375.8 101C355 101 334 101 313 101C292 101 271 101 250.2 101C229.3 101 208.7 101 187.8 101C167 101 146 101 125.2 101C104.3 101 83.7 101 62.8 101C42 101 21 101 10.5 101L0 101Z" fill="#292929"></path><path d="M0 60L10.5 61C21 62 42 64 62.8 64.3C83.7 64.7 104.3 63.3 125.2 64.7C146 66 167 70 187.8 72.8C208.7 75.7 229.3 77.3 250.2 75.7C271 74 292 69 313 68.5C334 68 355 72 375.8 71.8C396.7 71.7 417.3 67.3 438.2 67C459 66.7 480 70.3 500.8 72.8C521.7 75.3 542.3 76.7 563.2 75C584 73.3 605 68.7 626 66.2C647 63.7 668 63.3 688.8 64.3C709.7 65.3 730.3 67.7 751.2 68.5C772 69.3 793 68.7 814 69.2C835 69.7 856 71.3 876.8 72.7C897.7 74 918.3 75 939.2 76C960 77 981 78 1001.8 78.3C1022.7 78.7 1043.3 78.3 1064.2 77.3C1085 76.3 1106 74.7 1127 74.2C1148 73.7 1169 74.3 1189.8 75.2C1210.7 76 1231.3 77 1252.2 76.8C1273 76.7 1294 75.3 1314.8 72.8C1335.7 70.3 1356.3 66.7 1377.2 64.7C1398 62.7 1419 62.3 1429.5 62.2L1440 62L1440 101L1429.5 101C1419 101 1398 101 1377.2 101C1356.3 101 1335.7 101 1314.8 101C1294 101 1273 101 1252.2 101C1231.3 101 1210.7 101 1189.8 101C1169 101 1148 101 1127 101C1106 101 1085 101 1064.2 101C1043.3 101 1022.7 101 1001.8 101C981 101 960 101 939.2 101C918.3 101 897.7 101 876.8 101C856 101 835 101 814 101C793 101 772 101 751.2 101C730.3 101 709.7 101 688.8 101C668 101 647 101 626 101C605 101 584 101 563.2 101C542.3 101 521.7 101 500.8 101C480 101 459 101 438.2 101C417.3 101 396.7 101 375.8 101C355 101 334 101 313 101C292 101 271 101 250.2 101C229.3 101 208.7 101 187.8 101C167 101 146 101 125.2 101C104.3 101 83.7 101 62.8 101C42 101 21 101 10.5 101L0 101Z" fill="#242424"></path><path d="M0 74L10.5 74.2C21 74.3 42 74.7 62.8 76.2C83.7 77.7 104.3 80.3 125.2 80.7C146 81 167 79 187.8 78C208.7 77 229.3 77 250.2 78.5C271 80 292 83 313 83C334 83 355 80 375.8 78.2C396.7 76.3 417.3 75.7 438.2 76.3C459 77 480 79 500.8 80.2C521.7 81.3 542.3 81.7 563.2 82.2C584 82.7 605 83.3 626 82.2C647 81 668 78 688.8 78.5C709.7 79 730.3 83 751.2 85.2C772 87.3 793 87.7 814 86.3C835 85 856 82 876.8 81.3C897.7 80.7 918.3 82.3 939.2 81.8C960 81.3 981 78.7 1001.8 78C1022.7 77.3 1043.3 78.7 1064.2 78.5C1085 78.3 1106 76.7 1127 77.3C1148 78 1169 81 1189.8 80.8C1210.7 80.7 1231.3 77.3 1252.2 76.2C1273 75 1294 76 1314.8 78.5C1335.7 81 1356.3 85 1377.2 85.5C1398 86 1419 83 1429.5 81.5L1440 80L1440 101L1429.5 101C1419 101 1398 101 1377.2 101C1356.3 101 1335.7 101 1314.8 101C1294 101 1273 101 1252.2 101C1231.3 101 1210.7 101 1189.8 101C1169 101 1148 101 1127 101C1106 101 1085 101 1064.2 101C1043.3 101 1022.7 101 1001.8 101C981 101 960 101 939.2 101C918.3 101 897.7 101 876.8 101C856 101 835 101 814 101C793 101 772 101 751.2 101C730.3 101 709.7 101 688.8 101C668 101 647 101 626 101C605 101 584 101 563.2 101C542.3 101 521.7 101 500.8 101C480 101 459 101 438.2 101C417.3 101 396.7 101 375.8 101C355 101 334 101 313 101C292 101 271 101 250.2 101C229.3 101 208.7 101 187.8 101C167 101 146 101 125.2 101C104.3 101 83.7 101 62.8 101C42 101 21 101 10.5 101L0 101Z" fill="#1f1f1f"></path></svg>